g MeshMoustache02
v 0.060449336 -0.08226917 0.15735212
v 0.08618179 -0.08179206 0.15549217
v 0.060262542 -0.08067835 0.15315536
v 0.08740173 -0.08175501 0.15735212
v 0.077129506 -0.066043034 0.15735212
v 0.08618179 -0.08179206 0.15999259
v 0.060262542 -0.08067835 0.16232152
v 0.07652031 -0.066068545 0.16549361
v 0.07239395 -0.069130376 0.1708887
v 0.06248645 -0.050310306 0.16644496
v 0.060284697 -0.05847925 0.17426684
v 0.043463025 -0.03425269 0.1681958
v 0.04261479 -0.042617068 0.17738226
v 0.06305983 -0.0506247 0.15735212
v 0.02077323 -0.022641297 0.16913106
v 0.021745937 -0.03231604 0.18129162
v -1.6442662E-09 -0.027324708 0.16617519
v -1.6442662E-09 -0.031981997 0.17422643
v -1.6442662E-09 -0.026427126 0.15735212
v 0.020013979 -0.021675112 0.157186
v 0.044020683 -0.03425507 0.15735212
v 0.02077323 -0.022641297 0.1471555
v -1.6442662E-09 -0.027324708 0.14993475
v 0.043463025 -0.03425269 0.1482461
v 0.06248645 -0.050310306 0.14970933
v 0.021745937 -0.03231604 0.13699263
v -1.6442662E-09 -0.031981997 0.14435986
v -1.6442662E-09 -0.049089115 0.14578275
v 0.04261479 -0.042617068 0.14056878
v 0.016473826 -0.050973576 0.13838598
v -1.6442662E-09 -0.05357306 0.14966789
v 0.012810669 -0.0629234 0.14885995
v 0.033017844 -0.055923283 0.14160667
v 0.027272014 -0.06595966 0.1504443
v 0.05274982 -0.06658551 0.14472021
v 0.044750012 -0.070380434 0.15187918
v 0.060284697 -0.05847925 0.1431724
v 0.065508194 -0.07754462 0.14747071
v 0.060262542 -0.08067835 0.15315536
v 0.07239395 -0.069130376 0.14599559
v 0.07652031 -0.066068545 0.15050437
v 0.012810669 -0.0629234 0.14885995
v -1.6442662E-09 -0.05357306 0.14966789
v -1.6442662E-09 -0.057315983 0.15735212
v 0.011556549 -0.066970706 0.157186
v 0.027272014 -0.06595966 0.1504443
v 0.012810669 -0.0629234 0.16709155
v -1.6442662E-09 -0.05357306 0.16649455
v 0.027272014 -0.06595966 0.16556552
v 0.025662338 -0.0684961 0.15735212
v 0.044750012 -0.070380434 0.15187918
v 0.044750012 -0.070380434 0.16384858
v 0.04186339 -0.071561895 0.15735212
v 0.060262542 -0.08067835 0.15315536
v 0.044750012 -0.070380434 0.15187918
v 0.04186339 -0.071561895 0.15735212
v 0.044750012 -0.070380434 0.16384858
v 0.060262542 -0.08067835 0.16232152
v 0.021745937 -0.03231604 0.18129162
v -1.6442662E-09 -0.049089115 0.17252383
v -1.6442662E-09 -0.031981997 0.17422643
v 0.016473826 -0.050973576 0.17962438
v -1.6442662E-09 -0.05357306 0.16649455
v 0.012810669 -0.0629234 0.16709155
v 0.04261479 -0.042617068 0.17738226
v 0.033017844 -0.055923283 0.17614032
v 0.027272014 -0.06595966 0.16556552
v 0.05274982 -0.06658551 0.1724148
v 0.060284697 -0.05847925 0.17426684
v 0.044750012 -0.070380434 0.16384858
v 0.07239395 -0.069130376 0.1708887
v 0.065508194 -0.07754462 0.16912362
v 0.060262542 -0.08067835 0.16232152
v 0.08618179 -0.08179206 0.15999259
v -0.060449336 -0.08226917 0.15735212
v -0.060262542 -0.08067835 0.15315536
v -0.08618179 -0.08179206 0.15549217
v -0.08740173 -0.08175501 0.15735212
v -0.077129506 -0.066043034 0.15735212
v -0.08618179 -0.08179206 0.15999259
v -0.060262542 -0.08067835 0.16232152
v -0.07652031 -0.066068545 0.16549361
v -0.07239395 -0.069130376 0.1708887
v -0.06248645 -0.050310306 0.16644496
v -0.060284697 -0.05847925 0.17426684
v -0.043463025 -0.03425269 0.1681958
v -0.04261479 -0.042617068 0.17738226
v -0.06305983 -0.0506247 0.15735212
v -0.020773234 -0.022641297 0.16913106
v -0.02174594 -0.03231604 0.18129162
v -1.6442662E-09 -0.027324708 0.16617519
v -1.6442662E-09 -0.031981997 0.17422643
v -1.6442662E-09 -0.026427126 0.15735212
v -0.020013982 -0.021675112 0.157186
v -0.044020683 -0.03425507 0.15735212
v -0.020773234 -0.022641297 0.1471555
v -1.6442662E-09 -0.027324708 0.14993475
v -0.043463025 -0.03425269 0.1482461
v -0.06248645 -0.050310306 0.14970933
v -0.02174594 -0.03231604 0.13699263
v -1.6442662E-09 -0.031981997 0.14435986
v -1.6442662E-09 -0.049089115 0.14578275
v -0.04261479 -0.042617068 0.14056878
v -0.01647383 -0.050973576 0.13838598
v -1.6442662E-09 -0.05357306 0.14966789
v -0.012810673 -0.0629234 0.14885995
v -0.033017844 -0.055923283 0.14160667
v -0.027272018 -0.06595966 0.1504443
v -0.05274982 -0.06658551 0.14472021
v -0.044750012 -0.070380434 0.15187918
v -0.060284697 -0.05847925 0.1431724
v -0.065508194 -0.07754462 0.14747071
v -0.060262542 -0.08067835 0.15315536
v -0.07239395 -0.069130376 0.14599559
v -0.07652031 -0.066068545 0.15050437
v -0.012810673 -0.0629234 0.14885995
v -1.6442662E-09 -0.057315983 0.15735212
v -1.6442662E-09 -0.05357306 0.14966789
v -0.011556553 -0.066970706 0.157186
v -0.027272018 -0.06595966 0.1504443
v -0.012810673 -0.0629234 0.16709155
v -1.6442662E-09 -0.05357306 0.16649455
v -0.027272018 -0.06595966 0.16556552
v -0.025662342 -0.0684961 0.15735212
v -0.044750012 -0.070380434 0.15187918
v -0.044750012 -0.070380434 0.16384858
v -0.04186339 -0.071561895 0.15735212
v -0.044750012 -0.070380434 0.15187918
v -0.060262542 -0.08067835 0.15315536
v -0.04186339 -0.071561895 0.15735212
v -0.044750012 -0.070380434 0.16384858
v -0.060262542 -0.08067835 0.16232152
v -0.02174594 -0.03231604 0.18129162
v -1.6442662E-09 -0.031981997 0.17422643
v -1.6442662E-09 -0.049089115 0.17252383
v -0.01647383 -0.050973576 0.17962438
v -1.6442662E-09 -0.05357306 0.16649455
v -0.012810673 -0.0629234 0.16709155
v -0.04261479 -0.042617068 0.17738226
v -0.033017844 -0.055923283 0.17614032
v -0.027272018 -0.06595966 0.16556552
v -0.05274982 -0.06658551 0.1724148
v -0.060284697 -0.05847925 0.17426684
v -0.044750012 -0.070380434 0.16384858
v -0.07239395 -0.069130376 0.1708887
v -0.065508194 -0.07754462 0.16912362
v -0.060262542 -0.08067835 0.16232152
v -0.08618179 -0.08179206 0.15999259
vt 0 0
vt 0 0
vt 0 0
vt 0 0
vt 0 0
vt 0 0
vt 0 0
vt 0 0
vt 0 0
vt 0 0
vt 0 0
vt 0 0
vt 0 0
vt 0 0
vt 0 0
vt 0 0
vt 0 0
vt 0 0
vt 0 0
vt 0 0
vt 0 0
vt 0 0
vt 0 0
vt 0 0
vt 0 0
vt 0 0
vt 0 0
vt 0 0
vt 0 0
vt 0 0
vt 0 0
vt 0 0
vt 0 0
vt 0 0
vt 0 0
vt 0 0
vt 0 0
vt 0 0
vt 0 0
vt 0 0
vt 0 0
vt 0 0
vt 0 0
vt 0 0
vt 0 0
vt 0 0
vt 0 0
vt 0 0
vt 0 0
vt 0 0
vt 0 0
vt 0 0
vt 0 0
vt 0.4169922 0
vt 0.57421875 0.7607422
vt 0.20727539 1
vt 0.57421875 0.7607422
vt 0.4169922 0
vt 0 0
vt 0 0
vt 0 0
vt 0 0
vt 0 0
vt 0 0
vt 0 0
vt 0 0
vt 0 0
vt 0 0
vt 0 0
vt 0 0
vt 0 0
vt 0 0
vt 0 0
vt 0 0
vt 0 0
vt 0 0
vt 0 0
vt 0 0
vt 0 0
vt 0 0
vt 0 0
vt 0 0
vt 0 0
vt 0 0
vt 0 0
vt 0 0
vt 0 0
vt 0 0
vt 0 0
vt 0 0
vt 0 0
vt 0 0
vt 0 0
vt 0 0
vt 0 0
vt 0 0
vt 0 0
vt 0 0
vt 0 0
vt 0 0
vt 0 0
vt 0 0
vt 0 0
vt 0 0
vt 0 0
vt 0 0
vt 0 0
vt 0 0
vt 0 0
vt 0 0
vt 0 0
vt 0 0
vt 0 0
vt 0 0
vt 0 0
vt 0 0
vt 0 0
vt 0 0
vt 0 0
vt 0 0
vt 0 0
vt 0 0
vt 0 0
vt 0 0
vt 0 0
vt 0 0
vt 0 0
vt 0.57421875 0.7607422
vt 0.4169922 0
vt 0.20727539 1
vt 0.57421875 0.7607422
vt 0.4169922 0
vt 0 0
vt 0 0
vt 0 0
vt 0 0
vt 0 0
vt 0 0
vt 0 0
vt 0 0
vt 0 0
vt 0 0
vt 0 0
vt 0 0
vt 0 0
vt 0 0
vt 0 0
vt 0 0
vn -0.2692871 -0.9628906 0.0018634796
vn 0.63916016 -0.5024414 -0.58203125
vn -0.30908203 -0.89160156 -0.3305664
vn 0.94433594 -0.328125 0.018814087
vn 0.78808594 0.61572266 -4.5895576E-05
vn 0.8208008 -0.4243164 0.38256836
vn -0.30664062 -0.91064453 0.27685547
vn 0.75097656 0.54345703 0.37548828
vn 0.609375 0.41674805 0.6743164
vn 0.65966797 0.6582031 0.3623047
vn 0.56689453 0.5083008 0.6479492
vn 0.52978516 0.7734375 0.34765625
vn 0.49121094 0.62060547 0.6113281
vn 0.6923828 0.7211914 -7.3313713E-06
vn 0.1595459 0.91796875 0.36279297
vn 0.19567871 0.7675781 0.6098633
vn -0.23022461 0.9038086 0.36083984
vn -0.21569824 0.7915039 0.57177734
vn -0.2322998 0.97265625 0.00038290024
vn 0.16333008 0.9863281 -0.000333786
vn 0.5522461 0.8334961 0.000103890896
vn 0.15393066 0.8925781 -0.42358398
vn -0.24255371 0.8671875 -0.43481445
vn 0.5185547 0.7548828 -0.40112305
vn 0.64160156 0.640625 -0.42138672
vn 0.024154663 0.31030273 -0.9501953
vn -0.3330078 0.31201172 -0.88964844
vn -0.3935547 -0.20727539 -0.8955078
vn 0.29614258 0.22521973 -0.92822266
vn -0.15820312 -0.26123047 -0.95214844
vn -0.41357422 -0.5449219 -0.7294922
vn -0.19165039 -0.61865234 -0.76171875
vn 0.010559082 -0.36083984 -0.9326172
vn -0.10736084 -0.6557617 -0.7475586
vn -0.092285156 -0.38232422 -0.9194336
vn -0.23071289 -0.6513672 -0.72314453
vn 0.27490234 0.114868164 -0.95458984
vn -0.05444336 -0.53125 -0.84521484
vn -0.2854004 -0.6875 -0.66748047
vn 0.34155273 0.012748718 -0.9399414
vn 0.72998047 0.5263672 -0.43554688
vn -0.38183594 -0.8256836 -0.41503906
vn -0.5751953 -0.71728516 -0.39404297
vn -0.6220703 -0.7832031 -0.0019464493
vn -0.40014648 -0.9165039 -0.00041389465
vn -0.15454102 -0.9121094 -0.3791504
vn -0.39086914 -0.84765625 0.35839844
vn -0.58203125 -0.73828125 0.34033203
vn -0.16174316 -0.93115234 0.32666016
vn -0.1652832 -0.9863281 0.0008792877
vn -0.35791016 -0.8618164 -0.359375
vn -0.35864258 -0.8808594 0.3083496
vn -0.32128906 -0.94677734 -0.0010461807
vn -0.30908203 -0.89160156 -0.3305664
vn -0.35791016 -0.8618164 -0.359375
vn -0.32128906 -0.94677734 -0.0010461807
vn -0.35864258 -0.8808594 0.3083496
vn -0.30664062 -0.91064453 0.27685547
vn -0.10632324 -0.098083496 0.9892578
vn -0.39575195 -0.28076172 0.8745117
vn -0.3491211 -0.036743164 0.93652344
vn -0.15966797 -0.31347656 0.93603516
vn -0.4152832 -0.6386719 0.64746094
vn -0.20825195 -0.69189453 0.69140625
vn 0.093444824 -0.16577148 0.9819336
vn 0.0033569336 -0.4169922 0.9091797
vn -0.1274414 -0.7167969 0.6855469
vn -0.10614014 -0.4453125 0.88916016
vn 0.047668457 -0.20690918 0.9770508
vn -0.25439453 -0.7084961 0.6582031
vn 0.1340332 -0.31420898 0.9399414
vn -0.069885254 -0.59277344 0.8027344
vn -0.30273438 -0.7421875 0.59765625
vn 0.19165039 -0.64941406 0.73583984
vn 0.2692871 -0.9628906 0.0018672943
vn 0.30908203 -0.89160156 -0.3305664
vn -0.63916016 -0.5024414 -0.58203125
vn -0.94433594 -0.328125 0.018829346
vn -0.78808594 0.61572266 -4.261732E-05
vn -0.8208008 -0.4243164 0.38256836
vn 0.30664062 -0.91064453 0.27685547
vn -0.75097656 0.54345703 0.37548828
vn -0.609375 0.41674805 0.6743164
vn -0.66015625 0.6582031 0.3623047
vn -0.56689453 0.5083008 0.6479492
vn -0.52978516 0.7734375 0.34765625
vn -0.49121094 0.62060547 0.6113281
vn -0.6923828 0.7211914 -5.1259995E-06
vn -0.1595459 0.91796875 0.36279297
vn -0.19567871 0.7675781 0.6098633
vn 0.23022461 0.9038086 0.36083984
vn 0.21569824 0.7915039 0.57177734
vn 0.2322998 0.97265625 0.00038290024
vn -0.16333008 0.9863281 -0.0003259182
vn -0.5522461 0.8334961 0.000106334686
vn -0.15393066 0.8925781 -0.42358398
vn 0.24255371 0.8671875 -0.43481445
vn -0.5185547 0.7548828 -0.40112305
vn -0.64160156 0.640625 -0.42138672
vn -0.024169922 0.31030273 -0.9501953
vn 0.33276367 0.31201172 -0.8901367
vn 0.3935547 -0.20727539 -0.8955078
vn -0.29614258 0.22521973 -0.92822266
vn 0.15820312 -0.26123047 -0.95214844
vn 0.41357422 -0.5449219 -0.7294922
vn 0.19165039 -0.61865234 -0.76171875
vn -0.010559082 -0.36083984 -0.9326172
vn 0.10736084 -0.6557617 -0.7475586
vn 0.092285156 -0.38232422 -0.9194336
vn 0.23071289 -0.6513672 -0.72314453
vn -0.27514648 0.114868164 -0.95458984
vn 0.05444336 -0.53125 -0.84521484
vn 0.2854004 -0.6875 -0.66748047
vn -0.34155273 0.012748718 -0.9399414
vn -0.72998047 0.5263672 -0.43554688
vn 0.38183594 -0.8256836 -0.41503906
vn 0.6220703 -0.7832031 -0.0019464493
vn 0.5751953 -0.71728516 -0.39404297
vn 0.40014648 -0.9165039 -0.00041484833
vn 0.15454102 -0.9121094 -0.3791504
vn 0.39086914 -0.84765625 0.35839844
vn 0.58203125 -0.73828125 0.34033203
vn 0.16174316 -0.93115234 0.32666016
vn 0.1652832 -0.9863281 0.0008792877
vn 0.3581543 -0.8618164 -0.359375
vn 0.35864258 -0.8808594 0.3083496
vn 0.32128906 -0.94677734 -0.0010461807
vn 0.3581543 -0.8618164 -0.359375
vn 0.30908203 -0.89160156 -0.3305664
vn 0.32128906 -0.94677734 -0.0010461807
vn 0.35864258 -0.8808594 0.3083496
vn 0.30664062 -0.91064453 0.27685547
vn 0.10632324 -0.098083496 0.9892578
vn 0.3491211 -0.036743164 0.93652344
vn 0.39575195 -0.28076172 0.8745117
vn 0.15966797 -0.31347656 0.93603516
vn 0.4152832 -0.6386719 0.64746094
vn 0.20825195 -0.69189453 0.69140625
vn -0.093444824 -0.16577148 0.9819336
vn -0.0033569336 -0.4169922 0.9091797
vn 0.1274414 -0.7167969 0.6855469
vn 0.10601807 -0.4453125 0.88916016
vn -0.047668457 -0.20690918 0.9770508
vn 0.25439453 -0.7084961 0.6582031
vn -0.1340332 -0.31420898 0.9399414
vn 0.069885254 -0.59277344 0.8027344
vn 0.30273438 -0.7421875 0.59765625
vn -0.19165039 -0.64941406 0.73583984
g MeshMoustache02_0
f 3/3/3 2/2/2 1/1/1
f 2/2/2 4/4/4 1/1/1
f 4/4/4 2/2/2 5/5/5
f 4/4/4 6/6/6 1/1/1
f 6/6/6 4/4/4 5/5/5
f 6/6/6 7/7/7 1/1/1
f 8/8/8 6/6/6 5/5/5
f 6/6/6 8/8/8 9/9/9
f 9/9/9 8/8/8 10/10/10
f 10/10/10 8/8/8 5/5/5
f 11/11/11 9/9/9 10/10/10
f 11/11/11 10/10/10 12/12/12
f 13/13/13 11/11/11 12/12/12
f 14/14/14 10/10/10 5/5/5
f 12/12/12 10/10/10 14/14/14
f 13/13/13 12/12/12 15/15/15
f 16/16/16 13/13/13 15/15/15
f 16/16/16 15/15/15 17/17/17
f 18/18/18 16/16/16 17/17/17
f 19/19/19 17/17/17 15/15/15
f 15/15/15 12/12/12 20/20/20
f 20/20/20 19/19/19 15/15/15
f 21/21/21 12/12/12 14/14/14
f 12/12/12 21/21/21 20/20/20
f 19/19/19 20/20/20 22/22/22
f 23/23/23 19/19/19 22/22/22
f 21/21/21 24/24/24 20/20/20
f 24/24/24 21/21/21 14/14/14
f 24/24/24 22/22/22 20/20/20
f 25/25/25 14/14/14 5/5/5
f 25/25/25 24/24/24 14/14/14
f 22/22/22 26/26/26 23/23/23
f 26/26/26 27/27/27 23/23/23
f 28/28/28 27/27/27 26/26/26
f 24/24/24 29/29/29 22/22/22
f 29/29/29 26/26/26 22/22/22
f 30/30/30 28/28/28 26/26/26
f 30/30/30 26/26/26 29/29/29
f 31/31/31 28/28/28 30/30/30
f 32/32/32 31/31/31 30/30/30
f 32/32/32 30/30/30 33/33/33
f 33/33/33 30/30/30 29/29/29
f 34/34/34 32/32/32 33/33/33
f 34/34/34 33/33/33 35/35/35
f 35/35/35 33/33/33 29/29/29
f 36/36/36 34/34/34 35/35/35
f 37/37/37 29/29/29 24/24/24
f 25/25/25 37/37/37 24/24/24
f 37/37/37 35/35/35 29/29/29
f 35/35/35 38/38/38 36/36/36
f 38/38/38 39/39/39 36/36/36
f 38/38/38 2/2/2 39/39/39
f 37/37/37 40/40/40 35/35/35
f 40/40/40 38/38/38 35/35/35
f 40/40/40 37/37/37 25/25/25
f 40/40/40 2/2/2 38/38/38
f 41/41/41 40/40/40 25/25/25
f 41/41/41 2/2/2 40/40/40
f 41/41/41 25/25/25 5/5/5
f 2/2/2 41/41/41 5/5/5
f 44/44/44 43/43/43 42/42/42
f 45/45/45 44/44/44 42/42/42
f 42/42/42 46/46/46 45/45/45
f 44/44/44 45/45/45 47/47/47
f 48/48/48 44/44/44 47/47/47
f 49/49/49 47/47/47 45/45/45
f 46/46/46 50/50/50 45/45/45
f 50/50/50 49/49/49 45/45/45
f 50/50/50 46/46/46 51/51/51
f 49/49/49 50/50/50 52/52/52
f 53/53/53 50/50/50 51/51/51
f 50/50/50 53/53/53 52/52/52
f 55/55/55 54/54/54 1/1/1
f 56/56/56 55/55/55 1/1/1
f 57/57/57 56/56/56 1/1/1
f 58/58/58 57/57/57 1/1/1
f 61/61/61 60/60/60 59/59/59
f 60/60/60 62/62/62 59/59/59
f 60/60/60 63/63/63 62/62/62
f 63/63/63 64/64/64 62/62/62
f 59/59/59 62/62/62 65/65/65
f 62/62/62 64/64/64 66/66/66
f 62/62/62 66/66/66 65/65/65
f 64/64/64 67/67/67 66/66/66
f 66/66/66 68/68/68 65/65/65
f 66/66/66 67/67/67 68/68/68
f 68/68/68 69/69/69 65/65/65
f 67/67/67 70/70/70 68/68/68
f 71/71/71 69/69/69 68/68/68
f 72/72/72 68/68/68 70/70/70
f 72/72/72 71/71/71 68/68/68
f 73/73/73 72/72/72 70/70/70
f 74/74/74 71/71/71 72/72/72
f 74/74/74 72/72/72 73/73/73
f 77/77/77 76/76/76 75/75/75
f 78/78/78 77/77/77 75/75/75
f 77/77/77 78/78/78 79/79/79
f 80/80/80 78/78/78 75/75/75
f 78/78/78 80/80/80 79/79/79
f 81/81/81 80/80/80 75/75/75
f 80/80/80 82/82/82 79/79/79
f 82/82/82 80/80/80 83/83/83
f 82/82/82 83/83/83 84/84/84
f 82/82/82 84/84/84 79/79/79
f 83/83/83 85/85/85 84/84/84
f 84/84/84 85/85/85 86/86/86
f 85/85/85 87/87/87 86/86/86
f 84/84/84 88/88/88 79/79/79
f 84/84/84 86/86/86 88/88/88
f 86/86/86 87/87/87 89/89/89
f 87/87/87 90/90/90 89/89/89
f 89/89/89 90/90/90 91/91/91
f 90/90/90 92/92/92 91/91/91
f 91/91/91 93/93/93 89/89/89
f 86/86/86 89/89/89 94/94/94
f 93/93/93 94/94/94 89/89/89
f 86/86/86 95/95/95 88/88/88
f 95/95/95 86/86/86 94/94/94
f 94/94/94 93/93/93 96/96/96
f 93/93/93 97/97/97 96/96/96
f 98/98/98 95/95/95 94/94/94
f 95/95/95 98/98/98 88/88/88
f 96/96/96 98/98/98 94/94/94
f 88/88/88 99/99/99 79/79/79
f 98/98/98 99/99/99 88/88/88
f 100/100/100 96/96/96 97/97/97
f 101/101/101 100/100/100 97/97/97
f 101/101/101 102/102/102 100/100/100
f 103/103/103 98/98/98 96/96/96
f 100/100/100 103/103/103 96/96/96
f 102/102/102 104/104/104 100/100/100
f 100/100/100 104/104/104 103/103/103
f 102/102/102 105/105/105 104/104/104
f 105/105/105 106/106/106 104/104/104
f 104/104/104 106/106/106 107/107/107
f 104/104/104 107/107/107 103/103/103
f 106/106/106 108/108/108 107/107/107
f 107/107/107 108/108/108 109/109/109
f 107/107/107 109/109/109 103/103/103
f 108/108/108 110/110/110 109/109/109
f 103/103/103 111/111/111 98/98/98
f 111/111/111 99/99/99 98/98/98
f 109/109/109 111/111/111 103/103/103
f 112/112/112 109/109/109 110/110/110
f 113/113/113 112/112/112 110/110/110
f 77/77/77 112/112/112 113/113/113
f 114/114/114 111/111/111 109/109/109
f 112/112/112 114/114/114 109/109/109
f 111/111/111 114/114/114 99/99/99
f 77/77/77 114/114/114 112/112/112
f 114/114/114 115/115/115 99/99/99
f 77/77/77 115/115/115 114/114/114
f 99/99/99 115/115/115 79/79/79
f 115/115/115 77/77/77 79/79/79
f 118/118/118 117/117/117 116/116/116
f 117/117/117 119/119/119 116/116/116
f 120/120/120 116/116/116 119/119/119
f 119/119/119 117/117/117 121/121/121
f 117/117/117 122/122/122 121/121/121
f 121/121/121 123/123/123 119/119/119
f 124/124/124 120/120/120 119/119/119
f 123/123/123 124/124/124 119/119/119
f 120/120/120 124/124/124 125/125/125
f 124/124/124 123/123/123 126/126/126
f 124/124/124 127/127/127 125/125/125
f 127/127/127 124/124/124 126/126/126
f 129/129/129 128/128/128 75/75/75
f 128/128/128 130/130/130 75/75/75
f 130/130/130 131/131/131 75/75/75
f 131/131/131 132/132/132 75/75/75
f 135/135/135 134/134/134 133/133/133
f 136/136/136 135/135/135 133/133/133
f 137/137/137 135/135/135 136/136/136
f 138/138/138 137/137/137 136/136/136
f 136/136/136 133/133/133 139/139/139
f 138/138/138 136/136/136 140/140/140
f 140/140/140 136/136/136 139/139/139
f 141/141/141 138/138/138 140/140/140
f 142/142/142 140/140/140 139/139/139
f 141/141/141 140/140/140 142/142/142
f 143/143/143 142/142/142 139/139/139
f 144/144/144 141/141/141 142/142/142
f 143/143/143 145/145/145 142/142/142
f 142/142/142 146/146/146 144/144/144
f 145/145/145 146/146/146 142/142/142
f 146/146/146 147/147/147 144/144/144
f 145/145/145 148/148/148 146/146/146
f 146/146/146 148/148/148 147/147/147
