g MeshMoustache01
v 0.09120853 -0.042565737 0.14464656
v 0.094885275 -0.045813844 0.14883654
v 0.097659186 -0.02515906 0.15825322
v 0.0727798 -0.060434878 0.1446799
v 0.094885275 -0.045813844 0.14883654
v 0.07138901 -0.053013124 0.14012957
v 0.04629409 -0.06617188 0.14501558
v 0.0874269 -0.038199954 0.14336231
v 0.097659186 -0.02515906 0.15825322
v 0.084422596 -0.03135956 0.14828613
v 0.07037161 -0.046583254 0.14010474
v 0.06758379 -0.038590763 0.14627644
v 0.04640113 -0.058323856 0.1384538
v 0.020971034 -0.0643617 0.14596793
v 0.04665987 -0.049706485 0.13735108
v 0.046416663 -0.040612858 0.14431259
v 0.023801051 -0.036859985 0.14305893
v 0.023299087 -0.044770326 0.1357271
v -1.6442662E-09 -0.027908448 0.14360741
v 0.022502745 -0.05589203 0.13757107
v -1.6442662E-09 -0.051375 0.13757677
v -1.6442662E-09 -0.06144666 0.14687999
v -1.6442662E-09 -0.03550415 0.13586268
v -0.02329909 -0.044770326 0.1357271
v -0.023801055 -0.036859985 0.14305893
v -0.022502748 -0.05589203 0.13757107
v -1.6442662E-09 -0.051375 0.13757677
v -0.04665987 -0.049706485 0.13735108
v -0.046416663 -0.040612858 0.14431259
v -0.06758379 -0.038590763 0.14627644
v -0.020971037 -0.0643617 0.14596793
v -1.6442662E-09 -0.06144666 0.14687999
v -0.04640113 -0.058323856 0.1384538
v -0.04629409 -0.06617188 0.14501558
v -0.07037161 -0.046583254 0.14010474
v -0.084422596 -0.03135956 0.14828613
v -0.07138901 -0.053013124 0.14012957
v -0.0727798 -0.060434878 0.1446799
v -0.0874269 -0.038199954 0.14336231
v -0.097659186 -0.02515906 0.15825322
v -0.09120853 -0.042565737 0.14464656
v -0.094885275 -0.045813844 0.14883654
v -0.097659186 -0.02515906 0.15825322
v -0.094885275 -0.045813844 0.14883654
v 0.09120853 -0.042565737 0.1683102
v 0.097659186 -0.02515906 0.15825322
v 0.094885275 -0.045813844 0.16292891
v 0.0874269 -0.038199954 0.16995956
v 0.097659186 -0.02515906 0.15825322
v 0.07138901 -0.053013124 0.17411141
v 0.07037161 -0.046583254 0.1741433
v 0.0727798 -0.060434878 0.16826734
v 0.094885275 -0.045813844 0.16292891
v 0.04629409 -0.06617188 0.16783622
v 0.04640113 -0.058323856 0.17626362
v 0.04665987 -0.049706485 0.17767988
v 0.023299087 -0.044770326 0.17976558
v 0.020971034 -0.0643617 0.1666131
v 0.022502745 -0.05589203 0.17739733
v -1.6442662E-09 -0.03550415 0.17959145
v -1.6442662E-09 -0.051375 0.17739001
v -1.6442662E-09 -0.06144666 0.16544175
v -0.09120853 -0.042565737 0.1683102
v -0.094885275 -0.045813844 0.16292891
v -0.097659186 -0.02515906 0.15825322
v -0.097659186 -0.02515906 0.15825322
v -0.0874269 -0.038199954 0.16995956
v -0.07138901 -0.053013124 0.17411141
v -0.07037161 -0.046583254 0.1741433
v -0.0727798 -0.060434878 0.16826734
v -0.094885275 -0.045813844 0.16292891
v -0.04629409 -0.06617188 0.16783622
v -0.04640113 -0.058323856 0.17626362
v -0.04665987 -0.049706485 0.17767988
v -0.02329909 -0.044770326 0.17976558
v -0.020971037 -0.0643617 0.1666131
v -0.022502748 -0.05589203 0.17739733
v -1.6442662E-09 -0.03550415 0.17959145
v -1.6442662E-09 -0.051375 0.17739001
v -1.6442662E-09 -0.06144666 0.16544175
v 0.020971034 -0.0643617 0.14596793
v -1.6442662E-09 -0.06144666 0.14687999
v -1.6442662E-09 -0.06478602 0.15490706
v 0.02023529 -0.067692444 0.15492916
v 0.04629409 -0.06617188 0.14501558
v 0.020971034 -0.0643617 0.1666131
v -1.6442662E-09 -0.06144666 0.16544175
v 0.04629409 -0.06617188 0.16783622
v 0.044419378 -0.06880646 0.15486631
v 0.0727798 -0.060434878 0.1446799
v 0.0727798 -0.060434878 0.16826734
v 0.072289824 -0.06322693 0.15512796
v 0.094885275 -0.045813844 0.14883654
v 0.094885275 -0.045813844 0.16292891
v 0.09556395 -0.04676453 0.1548987
v 0.09556395 -0.04676453 0.1548987
v 0.097659186 -0.02515906 0.15825322
v 0.0874269 -0.038199954 0.16995956
v 0.084422596 -0.03135956 0.16363579
v 0.097659186 -0.02515906 0.15825322
v 0.07037161 -0.046583254 0.1741433
v 0.06758379 -0.038590763 0.16621687
v 0.04665987 -0.049706485 0.17767988
v 0.046416663 -0.040612858 0.1687391
v 0.023801051 -0.036859985 0.1703492
v 0.023299087 -0.044770326 0.17976558
v -1.6442662E-09 -0.027908448 0.16964476
v -1.6442662E-09 -0.03550415 0.17959145
v -0.02329909 -0.044770326 0.17976558
v -0.023801055 -0.036859985 0.1703492
v -0.04665987 -0.049706485 0.17767988
v -0.046416663 -0.040612858 0.1687391
v -0.06758379 -0.038590763 0.16621687
v -0.07037161 -0.046583254 0.1741433
v -0.084422596 -0.03135956 0.16363579
v -0.0874269 -0.038199954 0.16995956
v -0.097659186 -0.02515906 0.15825322
v -0.020971037 -0.0643617 0.14596793
v -1.6442662E-09 -0.06478602 0.15490706
v -1.6442662E-09 -0.06144666 0.14687999
v -0.020235294 -0.067692444 0.15492916
v -0.04629409 -0.06617188 0.14501558
v -0.020971037 -0.0643617 0.1666131
v -1.6442662E-09 -0.06144666 0.16544175
v -0.04629409 -0.06617188 0.16783622
v -0.044419378 -0.06880646 0.15486631
v -0.0727798 -0.060434878 0.1446799
v -0.0727798 -0.060434878 0.16826734
v -0.072289824 -0.06322693 0.15512796
v -0.094885275 -0.045813844 0.14883654
v -0.094885275 -0.045813844 0.16292891
v -0.09556395 -0.04676453 0.1548987
v -0.097659186 -0.02515906 0.15825322
v -0.09556395 -0.04676453 0.1548987
v 0.024323655 -0.036850404 0.15502699
v -1.6442662E-09 -0.028713502 0.15502596
v -1.6442662E-09 -0.027908448 0.14360741
v -1.6442662E-09 -0.027908448 0.16964476
v 0.023801051 -0.036859985 0.14305893
v 0.023801051 -0.036859985 0.1703492
v 0.0467764 -0.039014466 0.15492094
v 0.046416663 -0.040612858 0.14431259
v 0.046416663 -0.040612858 0.1687391
v 0.06590431 -0.036075257 0.15492176
v 0.06758379 -0.038590763 0.14627644
v 0.06758379 -0.038590763 0.16621687
v 0.0840828 -0.028895508 0.15490702
v 0.084422596 -0.03135956 0.14828613
v 0.084422596 -0.03135956 0.16363579
v 0.097659186 -0.02515906 0.15825322
v -0.084422596 -0.03135956 0.14828613
v -0.0840828 -0.028895508 0.15490702
v -0.097659186 -0.02515906 0.15825322
v -0.084422596 -0.03135956 0.16363579
v -0.06758379 -0.038590763 0.14627644
v -0.06758379 -0.038590763 0.16621687
v -0.06590431 -0.036075257 0.15492176
v -0.046416663 -0.040612858 0.14431259
v -0.046416663 -0.040612858 0.1687391
v -0.0467764 -0.039014466 0.15492094
v -0.023801055 -0.036859985 0.14305893
v -0.023801055 -0.036859985 0.1703492
v -0.024323659 -0.036850404 0.15502699
v -1.6442662E-09 -0.027908448 0.14360741
v -1.6442662E-09 -0.027908448 0.16964476
v -1.6442662E-09 -0.028713502 0.15502596
vt 0 0
vt 1 0
vt 0.5 1
vt 0 0
vt 0 0
vt 0 0
vt 0 0
vt 0 0
vt 0 0
vt 0 0
vt 0 0
vt 0 0
vt 0 0
vt 0 0
vt 0 0
vt 0 0
vt 0 0
vt 0 0
vt 0 0
vt 0 0
vt 0 0
vt 0 0
vt 0 0
vt 0 0
vt 0 0
vt 0 0
vt 0 0
vt 0 0
vt 0 0
vt 0 0
vt 0 0
vt 0 0
vt 0 0
vt 0 0
vt 0 0
vt 0 0
vt 0 0
vt 0 0
vt 0 0
vt 0 0
vt 0 0
vt 0 0
vt 0.5 1
vt 1 0
vt 0 0
vt 0.5 1
vt 1 0
vt 0 0
vt 0 0
vt 0 0
vt 0 0
vt 0 0
vt 0 0
vt 0 0
vt 0 0
vt 0 0
vt 0 0
vt 0 0
vt 0 0
vt 0 0
vt 0 0
vt 0 0
vt 0 0
vt 1 0
vt 0.5 1
vt 0 0
vt 0 0
vt 0 0
vt 0 0
vt 0 0
vt 0 0
vt 0 0
vt 0 0
vt 0 0
vt 0 0
vt 0 0
vt 0 0
vt 0 0
vt 0 0
vt 0 0
vt 0 0
vt 0 0
vt 0 0
vt 0 0
vt 0 0
vt 0 0
vt 0 0
vt 0 0
vt 0 0
vt 0 0
vt 0 0
vt 0 0
vt 0 0
vt 0 0
vt 0 0
vt 1 0
vt 0.5 1
vt 0 0
vt 0 0
vt 0 0
vt 0 0
vt 0 0
vt 0 0
vt 0 0
vt 0 0
vt 0 0
vt 0 0
vt 0 0
vt 0 0
vt 0 0
vt 0 0
vt 0 0
vt 0 0
vt 0 0
vt 0 0
vt 0 0
vt 0 0
vt 0 0
vt 0 0
vt 0 0
vt 0 0
vt 0 0
vt 0 0
vt 0 0
vt 0 0
vt 0 0
vt 0 0
vt 0 0
vt 0 0
vt 0 0
vt 0 0
vt 0 0
vt 0.5 1
vt 1 0
vt 0 0
vt 0 0
vt 0 0
vt 0 0
vt 0 0
vt 0 0
vt 0 0
vt 0 0
vt 0 0
vt 0 0
vt 0 0
vt 0 0
vt 0 0
vt 0 0
vt 0 0
vt 0 0
vt 0 0
vt 0 0
vt 0 0
vt 0 0
vt 0 0
vt 0 0
vt 0 0
vt 0 0
vt 0 0
vt 0 0
vt 0 0
vt 0 0
vt 0 0
vt 0 0
vt 0 0
vt 0 0
vn 0.49145508 -0.17822266 -0.85253906
vn 0.57958984 -0.27001953 -0.76904297
vn 0.5449219 0.4326172 -0.7182617
vn 0.25390625 -0.5307617 -0.80859375
vn 0.57958984 -0.27001953 -0.76904297
vn 0.22851562 -0.3479004 -0.9091797
vn 0.032318115 -0.6323242 -0.7739258
vn 0.13793945 0.37109375 -0.91845703
vn 0.5449219 0.4326172 -0.7182617
vn -0.0006222725 0.59716797 -0.8022461
vn 0.049682617 0.31420898 -0.9482422
vn -0.047698975 0.5913086 -0.8051758
vn 0.04925537 -0.43554688 -0.8989258
vn -0.09753418 -0.67578125 -0.73046875
vn 0.08288574 0.27124023 -0.9589844
vn 0.09240723 0.62402344 -0.7758789
vn 0.21179199 0.6542969 -0.7260742
vn 0.09350586 0.24560547 -0.96484375
vn -0 0.6928711 -0.7211914
vn -0.056396484 -0.4350586 -0.8984375
vn -0.083496094 -0.37841797 -0.921875
vn -0.13134766 -0.67871094 -0.72265625
vn 5.9604645E-08 0.3630371 -0.9316406
vn -0.09350586 0.24560547 -0.96484375
vn -0.21203613 0.6542969 -0.72558594
vn 0.056365967 -0.4350586 -0.8989258
vn 0.083496094 -0.37841797 -0.921875
vn -0.08288574 0.27124023 -0.9589844
vn -0.09234619 0.62402344 -0.7758789
vn 0.047698975 0.5913086 -0.8051758
vn 0.09765625 -0.67578125 -0.73046875
vn 0.13134766 -0.67871094 -0.72265625
vn -0.04925537 -0.43554688 -0.8989258
vn -0.032318115 -0.6323242 -0.7739258
vn -0.049682617 0.31420898 -0.9482422
vn 0.0006222725 0.59716797 -0.8022461
vn -0.22851562 -0.3479004 -0.9091797
vn -0.25390625 -0.5307617 -0.80859375
vn -0.13793945 0.37109375 -0.91845703
vn -0.5449219 0.4326172 -0.7182617
vn -0.49145508 -0.17822266 -0.85253906
vn -0.57958984 -0.27001953 -0.76904297
vn -0.5449219 0.4326172 -0.7182617
vn -0.57958984 -0.27001953 -0.76904297
vn 0.5390625 -0.2709961 0.7973633
vn 0.74902344 0.10089111 0.65478516
vn 0.6166992 -0.37304688 0.6928711
vn 0.37402344 0.04537964 0.92626953
vn 0.74902344 0.10089111 0.65478516
vn 0.27490234 -0.4230957 0.86328125
vn 0.19482422 -0.061798096 0.9790039
vn 0.29882812 -0.6142578 0.73046875
vn 0.6166992 -0.37304688 0.6928711
vn 0.03704834 -0.72314453 0.6894531
vn 0.05886841 -0.5263672 0.84814453
vn 0.07763672 -0.14672852 0.9863281
vn -0.020492554 -0.17443848 0.984375
vn -0.10974121 -0.7602539 0.6401367
vn -0.06817627 -0.5253906 0.84814453
vn -0.053588867 -0.16516113 0.9848633
vn -0.10266113 -0.4658203 0.87890625
vn -0.14733887 -0.76171875 0.6308594
vn -0.5390625 -0.2709961 0.7973633
vn -0.6166992 -0.37304688 0.6928711
vn -0.74902344 0.10089111 0.65478516
vn -0.74902344 0.10089111 0.65478516
vn -0.37402344 0.04537964 0.92626953
vn -0.27490234 -0.4230957 0.86328125
vn -0.19482422 -0.061798096 0.9790039
vn -0.29882812 -0.6142578 0.73046875
vn -0.6166992 -0.37304688 0.6928711
vn -0.03704834 -0.72314453 0.6894531
vn -0.05886841 -0.5263672 0.84814453
vn -0.07763672 -0.14660645 0.9863281
vn 0.020492554 -0.17443848 0.984375
vn 0.10992432 -0.7602539 0.6401367
vn 0.06817627 -0.5253906 0.84814453
vn 0.053588867 -0.16516113 0.9848633
vn 0.10272217 -0.4658203 0.87890625
vn 0.14733887 -0.76171875 0.6308594
vn -0.093688965 -0.9379883 -0.33374023
vn -0.13793945 -0.9199219 -0.3671875
vn -0.14831543 -0.98876953 -0.0014333725
vn -0.10211182 -0.9946289 0.00075006485
vn 0.09741211 -0.95947266 -0.26416016
vn -0.095458984 -0.9604492 0.26098633
vn -0.14208984 -0.94677734 0.28881836
vn 0.093688965 -0.9736328 0.20776367
vn 0.06604004 -0.9980469 -0.00056648254
vn 0.37817383 -0.9003906 -0.21569824
vn 0.37524414 -0.9111328 0.17016602
vn 0.36254883 -0.9321289 0.0012788773
vn 0.6777344 -0.7114258 -0.18664551
vn 0.6879883 -0.7109375 0.14575195
vn 0.70703125 -0.70703125 -0.0030059814
vn 0.70703125 -0.70703125 -0.0030059814
vn 0.9951172 -0.099121094 0.016845703
vn -0.13220215 0.65722656 0.7421875
vn -0.11047363 0.6611328 0.7421875
vn -0.016159058 0.6748047 0.73779297
vn -0.05029297 0.68652344 0.72509766
vn -0.05697632 0.6845703 0.7265625
vn 0.107666016 0.71484375 0.69091797
vn 0.10437012 0.71435547 0.69189453
vn 0.2376709 0.7348633 0.6352539
vn 0.23132324 0.73291016 0.63964844
vn 0 0.77685547 0.62939453
vn -0 0.77685547 0.62939453
vn -0.23132324 0.73291016 0.63964844
vn -0.2376709 0.7348633 0.6347656
vn -0.10772705 0.71484375 0.69091797
vn -0.10437012 0.71435547 0.69189453
vn 0.05697632 0.6845703 0.7265625
vn 0.05029297 0.68652344 0.72509766
vn 0.11047363 0.6611328 0.7421875
vn 0.13220215 0.65722656 0.7421875
vn 0.016159058 0.6748047 0.73779297
vn 0.093688965 -0.9379883 -0.33374023
vn 0.14831543 -0.98876953 -0.0014333725
vn 0.13793945 -0.9199219 -0.3671875
vn 0.10211182 -0.9946289 0.0007505417
vn -0.09741211 -0.95947266 -0.26416016
vn 0.095458984 -0.9604492 0.26098633
vn 0.14208984 -0.94677734 0.28881836
vn -0.093688965 -0.9736328 0.20776367
vn -0.066101074 -0.9980469 -0.0005669594
vn -0.37817383 -0.9003906 -0.21569824
vn -0.37524414 -0.9111328 0.17016602
vn -0.36254883 -0.9321289 0.0012798309
vn -0.6777344 -0.7114258 -0.18664551
vn -0.6879883 -0.7109375 0.14575195
vn -0.70703125 -0.70703125 -0.0030269623
vn -0.9951172 -0.099121094 0.016845703
vn -0.70703125 -0.70703125 -0.0030269623
vn 0.23999023 0.9707031 -4.0590763E-05
vn 0.33496094 0.9423828 6.8604946E-05
vn 0.3347168 0.94189453 0.02456665
vn 0.3347168 0.94189453 -0.019180298
vn 0.24633789 0.96875 -0.019989014
vn 0.24572754 0.9692383 0.015655518
vn 0.023925781 0.9995117 -0.00038933754
vn 0.034240723 0.9902344 -0.13342285
vn 0.035003662 0.9941406 0.1027832
vn -0.21350098 0.9770508 -0.00036764145
vn -0.21325684 0.9394531 -0.2685547
vn -0.21289062 0.9550781 0.20703125
vn -0.33618164 0.94189453 -0.0104599
vn -0.31835938 0.88671875 -0.33544922
vn -0.34521484 0.9013672 0.26098633
vn -0.27978516 0.9580078 0.06591797
vn 0.31835938 0.88671875 -0.33544922
vn 0.33618164 0.94189453 -0.0104599
vn 0.27978516 0.9580078 0.06591797
vn 0.3449707 0.9013672 0.26098633
vn 0.21325684 0.9394531 -0.2685547
vn 0.21289062 0.9550781 0.20703125
vn 0.21350098 0.9770508 -0.0003657341
vn -0.034240723 0.9902344 -0.13342285
vn -0.035003662 0.9941406 0.1027832
vn -0.023925781 0.9995117 -0.00038933754
vn -0.24633789 0.96875 -0.019989014
vn -0.24572754 0.9692383 0.015655518
vn -0.23999023 0.9707031 -3.9935112E-05
vn -0.3347168 0.94189453 0.02456665
vn -0.3347168 0.94189453 -0.019180298
vn -0.33496094 0.9423828 6.8604946E-05
g MeshMoustache01_0
f 3/3/3 2/2/2 1/1/1
f 1/1/1 5/5/5 4/4/4
f 6/6/6 1/1/1 4/4/4
f 6/6/6 4/4/4 7/7/7
f 8/8/8 1/1/1 6/6/6
f 8/8/8 9/9/9 1/1/1
f 10/10/10 9/9/9 8/8/8
f 10/10/10 8/8/8 11/11/11
f 11/11/11 8/8/8 6/6/6
f 12/12/12 10/10/10 11/11/11
f 13/13/13 6/6/6 7/7/7
f 11/11/11 6/6/6 13/13/13
f 13/13/13 7/7/7 14/14/14
f 12/12/12 11/11/11 15/15/15
f 15/15/15 11/11/11 13/13/13
f 16/16/16 12/12/12 15/15/15
f 17/17/17 16/16/16 15/15/15
f 18/18/18 17/17/17 15/15/15
f 15/15/15 13/13/13 18/18/18
f 17/17/17 18/18/18 19/19/19
f 20/20/20 13/13/13 14/14/14
f 13/13/13 20/20/20 18/18/18
f 20/20/20 14/14/14 21/21/21
f 14/14/14 22/22/22 21/21/21
f 20/20/20 21/21/21 23/23/23
f 18/18/18 20/20/20 23/23/23
f 18/18/18 23/23/23 19/19/19
f 23/23/23 24/24/24 19/19/19
f 24/24/24 25/25/25 19/19/19
f 26/26/26 24/24/24 23/23/23
f 27/27/27 26/26/26 23/23/23
f 25/25/25 24/24/24 28/28/28
f 29/29/29 25/25/25 28/28/28
f 30/30/30 29/29/29 28/28/28
f 31/31/31 26/26/26 27/27/27
f 32/32/32 31/31/31 27/27/27
f 26/26/26 33/33/33 24/24/24
f 33/33/33 26/26/26 31/31/31
f 33/33/33 28/28/28 24/24/24
f 34/34/34 33/33/33 31/31/31
f 35/35/35 30/30/30 28/28/28
f 35/35/35 28/28/28 33/33/33
f 36/36/36 30/30/30 35/35/35
f 37/37/37 33/33/33 34/34/34
f 37/37/37 35/35/35 33/33/33
f 38/38/38 37/37/37 34/34/34
f 39/39/39 36/36/36 35/35/35
f 39/39/39 35/35/35 37/37/37
f 40/40/40 36/36/36 39/39/39
f 40/40/40 39/39/39 41/41/41
f 41/41/41 39/39/39 37/37/37
f 41/41/41 37/37/37 38/38/38
f 42/42/42 41/41/41 38/38/38
f 44/44/44 43/43/43 41/41/41
f 47/47/47 46/46/46 45/45/45
f 49/49/49 48/48/48 45/45/45
f 45/45/45 48/48/48 50/50/50
f 48/48/48 51/51/51 50/50/50
f 45/45/45 50/50/50 52/52/52
f 53/53/53 45/45/45 52/52/52
f 52/52/52 50/50/50 54/54/54
f 50/50/50 51/51/51 55/55/55
f 50/50/50 55/55/55 54/54/54
f 51/51/51 56/56/56 55/55/55
f 55/55/55 56/56/56 57/57/57
f 54/54/54 55/55/55 58/58/58
f 59/59/59 55/55/55 57/57/57
f 55/55/55 59/59/59 58/58/58
f 59/59/59 57/57/57 60/60/60
f 61/61/61 59/59/59 60/60/60
f 58/58/58 59/59/59 61/61/61
f 62/62/62 58/58/58 61/61/61
f 65/65/65 64/64/64 63/63/63
f 67/67/67 66/66/66 63/63/63
f 67/67/67 63/63/63 68/68/68
f 69/69/69 67/67/67 68/68/68
f 68/68/68 63/63/63 70/70/70
f 63/63/63 71/71/71 70/70/70
f 68/68/68 70/70/70 72/72/72
f 69/69/69 68/68/68 73/73/73
f 73/73/73 68/68/68 72/72/72
f 74/74/74 69/69/69 73/73/73
f 74/74/74 73/73/73 75/75/75
f 73/73/73 72/72/72 76/76/76
f 73/73/73 77/77/77 75/75/75
f 77/77/77 73/73/73 76/76/76
f 75/75/75 77/77/77 78/78/78
f 77/77/77 79/79/79 78/78/78
f 77/77/77 76/76/76 79/79/79
f 76/76/76 80/80/80 79/79/79
f 83/83/83 82/82/82 81/81/81
f 84/84/84 83/83/83 81/81/81
f 84/84/84 81/81/81 85/85/85
f 83/83/83 84/84/84 86/86/86
f 87/87/87 83/83/83 86/86/86
f 86/86/86 84/84/84 88/88/88
f 89/89/89 84/84/84 85/85/85
f 84/84/84 89/89/89 88/88/88
f 85/85/85 90/90/90 89/89/89
f 91/91/91 88/88/88 89/89/89
f 90/90/90 92/92/92 89/89/89
f 92/92/92 91/91/91 89/89/89
f 92/92/92 90/90/90 93/93/93
f 91/91/91 92/92/92 94/94/94
f 95/95/95 92/92/92 93/93/93
f 92/92/92 95/95/95 94/94/94
f 97/97/97 96/96/96 93/93/93
f 96/96/96 97/97/97 94/94/94
f 100/100/100 99/99/99 98/98/98
f 98/98/98 99/99/99 101/101/101
f 99/99/99 102/102/102 101/101/101
f 101/101/101 102/102/102 103/103/103
f 102/102/102 104/104/104 103/103/103
f 104/104/104 105/105/105 103/103/103
f 105/105/105 106/106/106 103/103/103
f 106/106/106 105/105/105 107/107/107
f 108/108/108 106/106/106 107/107/107
f 109/109/109 108/108/108 107/107/107
f 110/110/110 109/109/109 107/107/107
f 109/109/109 110/110/110 111/111/111
f 110/110/110 112/112/112 111/111/111
f 112/112/112 113/113/113 111/111/111
f 113/113/113 114/114/114 111/111/111
f 113/113/113 115/115/115 114/114/114
f 115/115/115 116/116/116 114/114/114
f 115/115/115 117/117/117 116/116/116
f 120/120/120 119/119/119 118/118/118
f 119/119/119 121/121/121 118/118/118
f 118/118/118 121/121/121 122/122/122
f 121/121/121 119/119/119 123/123/123
f 119/119/119 124/124/124 123/123/123
f 121/121/121 123/123/123 125/125/125
f 121/121/121 126/126/126 122/122/122
f 126/126/126 121/121/121 125/125/125
f 127/127/127 122/122/122 126/126/126
f 125/125/125 128/128/128 126/126/126
f 129/129/129 127/127/127 126/126/126
f 128/128/128 129/129/129 126/126/126
f 127/127/127 129/129/129 130/130/130
f 129/129/129 128/128/128 131/131/131
f 129/129/129 132/132/132 130/130/130
f 132/132/132 129/129/129 131/131/131
f 134/134/134 133/133/133 130/130/130
f 133/133/133 134/134/134 131/131/131
f 137/137/137 136/136/136 135/135/135
f 136/136/136 138/138/138 135/135/135
f 139/139/139 137/137/137 135/135/135
f 138/138/138 140/140/140 135/135/135
f 135/135/135 141/141/141 139/139/139
f 141/141/141 135/135/135 140/140/140
f 141/141/141 142/142/142 139/139/139
f 143/143/143 141/141/141 140/140/140
f 141/141/141 144/144/144 142/142/142
f 144/144/144 141/141/141 143/143/143
f 144/144/144 145/145/145 142/142/142
f 146/146/146 144/144/144 143/143/143
f 144/144/144 147/147/147 145/145/145
f 147/147/147 144/144/144 146/146/146
f 147/147/147 148/148/148 145/145/145
f 149/149/149 147/147/147 146/146/146
f 147/147/147 150/150/150 148/148/148
f 150/150/150 147/147/147 149/149/149
f 153/153/153 152/152/152 151/151/151
f 152/152/152 153/153/153 154/154/154
f 151/151/151 152/152/152 155/155/155
f 152/152/152 154/154/154 156/156/156
f 152/152/152 157/157/157 155/155/155
f 157/157/157 152/152/152 156/156/156
f 155/155/155 157/157/157 158/158/158
f 157/157/157 156/156/156 159/159/159
f 157/157/157 160/160/160 158/158/158
f 160/160/160 157/157/157 159/159/159
f 158/158/158 160/160/160 161/161/161
f 160/160/160 159/159/159 162/162/162
f 160/160/160 163/163/163 161/161/161
f 163/163/163 160/160/160 162/162/162
f 164/164/164 161/161/161 163/163/163
f 162/162/162 165/165/165 163/163/163
f 166/166/166 164/164/164 163/163/163
f 165/165/165 166/166/166 163/163/163
