g MeshBeard01
v 0.035578445 -0.13460837 0.16043033
v 0.035578445 -0.12341419 0.15392059
v 0.042127535 -0.13226819 0.15117186
v 0.054074034 -0.14783701 0.1466189
v 0.042127535 -0.13226819 0.15117186
v 0.047735013 -0.15344928 0.16141735
v 0.05516302 -0.17567298 0.13877624
v 0.027400782 -0.16227046 0.17296062
v 0.020258226 -0.14271617 0.16763166
v 0.051757947 -0.17830124 0.15537359
v 0.05210941 -0.20469312 0.14515789
v 0.036738146 -0.1876734 0.16493434
v -7.788045E-06 -0.17006004 0.17754479
v -7.788025E-06 -0.14725633 0.17032383
v 0.014950261 -0.20073783 0.16830762
v 0.017958902 -0.2156837 0.156803
v 0.03224034 -0.1958411 0.16191103
v -7.788025E-06 -0.23169352 0.15114929
v -7.788025E-06 -0.20549767 0.16857095
v -0.014965838 -0.20073783 0.16830762
v -0.01797448 -0.2156837 0.156803
v -0.036753718 -0.1876734 0.16493434
v -0.032255914 -0.1958411 0.16191103
v -0.020273803 -0.14271617 0.16763166
v -0.027416358 -0.16227046 0.17296062
v -0.047750585 -0.15344928 0.16141735
v -0.035594016 -0.13460837 0.16043033
v -0.051773522 -0.17830124 0.15537359
v -0.05212498 -0.20469312 0.14515789
v -0.05517859 -0.17567298 0.13877624
v -0.054089606 -0.14783701 0.1466189
v -0.042127535 -0.13226819 0.15117186
v -7.788025E-06 -0.113898806 0.15662964
v 0.020258226 -0.11648804 0.15589243
v 0.020258226 -0.14271617 0.16763166
v -0.020273803 -0.11648804 0.15589243
v -7.788025E-06 -0.113898806 0.15662964
v -7.788025E-06 -0.14725633 0.17032383
v -0.035594016 -0.12341419 0.15392059
v -0.020273803 -0.11648804 0.15589243
v -0.020273803 -0.14271617 0.16763166
v -0.042127535 -0.13226819 0.15117186
v -0.035594016 -0.12341419 0.15392059
v -0.035594016 -0.13460837 0.16043033
v -0.053843185 -0.21184734 0.12408811
v -0.027521556 -0.16886982 0.12327003
v -0.056896795 -0.17567298 0.117706455
v -0.05580781 -0.14783701 0.12554912
v -0.042127535 -0.13226819 0.13010208
v -0.056896795 -0.17567298 0.117706455
v -0.05580781 -0.14783701 0.12554912
v -0.042127535 -0.13226819 0.13010208
v -0.035594016 -0.12341419 0.13285081
v 0.056881223 -0.17567298 0.117706455
v 0.027510487 -0.16887361 0.12326993
v 0.053827614 -0.21184734 0.12408811
v 0.042127535 -0.13226819 0.13010208
v 0.05579224 -0.14783701 0.12554912
v 0.05579224 -0.14783701 0.12554912
v 0.056881223 -0.17567298 0.117706455
v 0.035578445 -0.12341419 0.13285081
v 0.042127535 -0.13226819 0.13010208
v -0.031906843 -0.17343397 0.13714525
v -0.027521556 -0.16886982 0.12327003
v -0.053843185 -0.21184734 0.12408811
v 0.053827614 -0.21184734 0.12408811
v 0.03189128 -0.17343397 0.13714525
v 0.036738146 -0.19482762 0.14386456
v -7.788025E-06 -0.23884773 0.13007951
v -7.792925E-06 -0.2077548 0.12506688
v -0.01797448 -0.2228379 0.13573322
v 0.017958902 -0.2228379 0.13573322
v -7.788025E-06 -0.23884773 0.13007951
v -0.031906843 -0.17343397 0.13714525
v -0.011656848 -0.14693147 0.13482265
v -0.027521556 -0.16886982 0.12327003
v 0.027510487 -0.16887361 0.12326993
v 0.011641271 -0.14693147 0.13482265
v 0.03189128 -0.17343397 0.13714525
v 0.053827614 -0.21184734 0.12408811
v 0.027510487 -0.16887361 0.12326993
v 0.03189128 -0.17343397 0.13714525
v -0.036753718 -0.19482762 0.14386456
v -0.031906843 -0.17343397 0.13714525
v -0.053843185 -0.21184734 0.12408811
v 0.020258226 -0.11648804 0.15589243
v 0.035578445 -0.12341419 0.15392059
v 0.035578445 -0.13460837 0.16043033
v -0.05212498 -0.20469312 0.14515789
v -0.053843185 -0.21184734 0.12408811
v -0.056896795 -0.17567298 0.117706455
v -0.05517859 -0.17567298 0.13877624
v 0.05516302 -0.17567298 0.13877624
v 0.056881223 -0.17567298 0.117706455
v 0.053827614 -0.21184734 0.12408811
v 0.05210941 -0.20469312 0.14515789
v -0.036753718 -0.1876734 0.16493434
v -0.036753718 -0.19482762 0.14386456
v -0.053843185 -0.21184734 0.12408811
v -0.05212498 -0.20469312 0.14515789
v 0.05210941 -0.20469312 0.14515789
v 0.053827614 -0.21184734 0.12408811
v 0.036738146 -0.19482762 0.14386456
v 0.036738146 -0.1876734 0.16493434
v 0.042127535 -0.13226819 0.15117186
v 0.042127535 -0.13226819 0.13010208
v 0.05579224 -0.14783701 0.12554912
v 0.054074034 -0.14783701 0.1466189
v -0.054089606 -0.14783701 0.1466189
v -0.05580781 -0.14783701 0.12554912
v -0.042127535 -0.13226819 0.13010208
v -0.042127535 -0.13226819 0.15117186
v 0.054074034 -0.14783701 0.1466189
v 0.05579224 -0.14783701 0.12554912
v 0.056881223 -0.17567298 0.117706455
v 0.05516302 -0.17567298 0.13877624
v -0.05517859 -0.17567298 0.13877624
v -0.056896795 -0.17567298 0.117706455
v -0.05580781 -0.14783701 0.12554912
v -0.054089606 -0.14783701 0.1466189
v -0.032255914 -0.1958411 0.16191103
v -0.032255914 -0.20299532 0.14084125
v -0.036753718 -0.19482762 0.14386456
v -0.036753718 -0.1876734 0.16493434
v -0.01797448 -0.2156837 0.156803
v -0.01797448 -0.2228379 0.13573322
v -0.032255914 -0.20299532 0.14084125
v -0.032255914 -0.1958411 0.16191103
v 0.03224034 -0.1958411 0.16191103
v 0.03224034 -0.20299532 0.14084125
v 0.017958902 -0.2228379 0.13573322
v 0.017958902 -0.2156837 0.156803
v 0.036738146 -0.1876734 0.16493434
v 0.036738146 -0.19482762 0.14386456
v 0.03224034 -0.20299532 0.14084125
v 0.03224034 -0.1958411 0.16191103
v -7.788025E-06 -0.23169352 0.15114929
v -7.788025E-06 -0.23884773 0.13007951
v -0.01797448 -0.2228379 0.13573322
v -0.01797448 -0.2156837 0.156803
v 0.017958902 -0.2156837 0.156803
v 0.017958902 -0.2228379 0.13573322
v -7.788025E-06 -0.23884773 0.13007951
v -7.788025E-06 -0.23169352 0.15114929
v -7.788025E-06 -0.113898806 0.15662964
v -7.788025E-06 -0.113898806 0.13555986
v 0.020258226 -0.11648804 0.13482265
v 0.020258226 -0.11648804 0.15589243
v -0.020273803 -0.11648804 0.15589243
v -0.020273803 -0.11648804 0.13482265
v -7.788025E-06 -0.113898806 0.13555986
v -7.788025E-06 -0.113898806 0.15662964
v 0.020258226 -0.11648804 0.15589243
v 0.020258226 -0.11648804 0.13482265
v 0.035578445 -0.12341419 0.13285081
v 0.035578445 -0.12341419 0.15392059
v -0.035594016 -0.12341419 0.15392059
v -0.035594016 -0.12341419 0.13285081
v -0.020273803 -0.11648804 0.13482265
v -0.020273803 -0.11648804 0.15589243
v 0.035578445 -0.12341419 0.15392059
v 0.035578445 -0.12341419 0.13285081
v 0.042127535 -0.13226819 0.13010208
v 0.042127535 -0.13226819 0.15117186
v -0.042127535 -0.13226819 0.15117186
v -0.042127535 -0.13226819 0.13010208
v -0.035594016 -0.12341419 0.13285081
v -0.035594016 -0.12341419 0.15392059
v -0.032255914 -0.20299532 0.14084125
v -0.006645484 -0.18491249 0.13470125
v -0.031906843 -0.17343397 0.13714525
v -0.036753718 -0.19482762 0.14386456
v -0.01797448 -0.2228379 0.13573322
v -7.792925E-06 -0.2077548 0.12506688
v -0.006645484 -0.18491249 0.13470125
v -0.032255914 -0.20299532 0.14084125
v 0.03224034 -0.20299532 0.14084125
v 0.006629915 -0.18491249 0.13470125
v -7.792925E-06 -0.2077548 0.12506688
v 0.017958902 -0.2228379 0.13573322
v 0.036738146 -0.19482762 0.14386456
v 0.03189128 -0.17343397 0.13714525
v 0.006629915 -0.18491249 0.13470125
v 0.03224034 -0.20299532 0.14084125
v -7.788025E-06 -0.113898806 0.13555986
v 0.011641271 -0.14693147 0.13482265
v 0.020258226 -0.11648804 0.13482265
v -7.787919E-06 -0.14563361 0.13555986
v 0.006629915 -0.18491249 0.13470125
v 0.03189128 -0.17343397 0.13714525
v 0.011641271 -0.14693147 0.13482265
v -0.020273803 -0.11648804 0.13482265
v -0.011656848 -0.14693147 0.13482265
v -7.787919E-06 -0.14563361 0.13555986
v -7.788025E-06 -0.113898806 0.13555986
v 0.020258226 -0.11648804 0.13482265
v 0.011641271 -0.14693147 0.13482265
v 0.027510487 -0.16887361 0.12326993
v 0.035578445 -0.12341419 0.13285081
v -0.035594016 -0.12341419 0.13285081
v -0.027521556 -0.16886982 0.12327003
v -0.011656848 -0.14693147 0.13482265
v -0.020273803 -0.11648804 0.13482265
v -7.787919E-06 -0.18491249 0.13470125
v -0.006645484 -0.18491249 0.13470125
v -7.792925E-06 -0.2077548 0.12506688
v 0.006629915 -0.18491249 0.13470125
v -0.006645484 -0.18491249 0.13470125
v -7.787919E-06 -0.14563361 0.13555986
v -0.011656848 -0.14693147 0.13482265
v -0.031906843 -0.17343397 0.13714525
v -7.787919E-06 -0.14563361 0.13555986
v -0.006645484 -0.18491249 0.13470125
v -7.787919E-06 -0.18491249 0.13470125
v 0.006629915 -0.18491249 0.13470125
vt 0 0
vt 0 1
vt 1 0.5
vt 0 0
vt 0 0
vt 0 0
vt 0 0
vt 0 0
vt 0 0
vt 0 0
vt 0 0
vt 0 0
vt 0 0
vt 0 0
vt 0 0
vt 0 0
vt 0 0
vt 0 0
vt 0 0
vt 0 0
vt 0 0
vt 0 0
vt 0 0
vt 0 0
vt 0 0
vt 0 0
vt 0 0
vt 0 0
vt 0 0
vt 0 0
vt 0 0
vt 0 0
vt 0 1
vt 1 1
vt 1 0
vt 0 1
vt 1 1
vt 1 0
vt 0 1
vt 1 1
vt 1 0
vt 0 0.5
vt 1 1
vt 1 0
vt 0 0
vt 0.5 1
vt 1 0
vt 0 0
vt 1 0
vt 0 0
vt 1 0
vt 0 0
vt 1 0
vt 0 0
vt 0.5 1
vt 1 0
vt 0 0
vt 1 0
vt 0 0
vt 1 0
vt 0 0
vt 1 0
vt 0 1
vt 1 1
vt 1 0
vt 0 0
vt 1 1
vt 1 0
vt 0 0
vt 0.5 1
vt 1 0
vt 0 0
vt 1 0
vt 0 0
vt 0.5390625 1
vt 0.5180664 0
vt 0.020690918 0
vt 0 1
vt 0.5385742 0
vt 0 0
vt 0 1
vt 1 1
vt 0 0
vt 0 1
vt 1 0
vt 0 1
vt 1 1
vt 1 0
vt 0 0
vt 0 1
vt 1 1
vt 1 0
vt 0 0
vt 0 1
vt 1 1
vt 1 0
vt 0 0
vt 0 1
vt 1 1
vt 1 0
vt 0 0
vt 0 1
vt 1 1
vt 1 0
vt 0 0
vt 0 1
vt 1 1
vt 1 0
vt 0 0
vt 0 1
vt 1 1
vt 1 0
vt 0 0
vt 0 1
vt 1 1
vt 1 0
vt 0 0
vt 0 1
vt 1 1
vt 1 0
vt 0 0
vt 0 1
vt 1 1
vt 1 0
vt 0 0
vt 0 1
vt 1 1
vt 1 0
vt 0 0
vt 0 1
vt 1 1
vt 1 0
vt 0 0
vt 0 1
vt 1 1
vt 1 0
vt 0 0
vt 0 1
vt 1 1
vt 1 0
vt 0 0
vt 0 1
vt 1 1
vt 1 0
vt 0 0
vt 0 1
vt 1 1
vt 1 0
vt 0 0
vt 0 1
vt 1 1
vt 1 0
vt 0 0
vt 0 1
vt 1 1
vt 1 0
vt 0 0
vt 0 1
vt 1 1
vt 1 0
vt 0 0
vt 0 1
vt 1 1
vt 1 0
vt 0 0
vt 0 1
vt 1 1
vt 1 0
vt 0 0
vt 0 1
vt 1 1
vt 1 0
vt 0 0
vt 0 1
vt 1 1
vt 1 0
vt 0 0
vt 0 1
vt 1 1
vt 1 0
vt 0 0
vt 0 1
vt 1 1
vt 1 0
vt 0 0
vt 1 1
vt 1 0
vt 0 1
vt 0.30004883 0
vt 0.9458008 0.4025879
vt 0.32104492 1
vt 0 0
vt 0 1
vt 1 1
vt 1 0
vt 0 0
vt 0 1
vt 1 1
vt 1 0
vt 0 0
vt 0 1
vt 1 1
vt 1 0
vt 0.0859375 0.32080078
vt 0.13378906 0.49975586
vt 1 0
vt 0 0
vt 0 0
vt 0.26611328 1
vt 0.52490234 0.8457031
vt 0.7236328 0
vt 0 0
vt 0.94433594 0.32861328
vt 0.96435547 0.2109375
vt 1 0
vn 0.40649414 0.39526367 0.82373047
vn 0.29077148 0.42358398 0.85791016
vn 0.7192383 0.43676758 0.54052734
vn 0.89746094 0.18334961 0.40161133
vn 0.7192383 0.43676758 0.54052734
vn 0.6855469 0.13354492 0.71533203
vn 0.9633789 -0.008468628 0.2680664
vn 0.29785156 0.026870728 0.95410156
vn 0.14941406 0.34960938 0.9248047
vn 0.7861328 -0.085510254 0.6123047
vn 0.8261719 -0.19384766 0.5292969
vn 0.39746094 -0.19055176 0.89746094
vn 2.2053719E-06 -0.025131226 0.9995117
vn -3.5762787E-07 0.34057617 0.9404297
vn 0.24658203 -0.34057617 0.90722656
vn 0.25610352 -0.54345703 0.7993164
vn 0.42163086 -0.5019531 0.7553711
vn -0 -0.5644531 0.8256836
vn 3.695488E-06 -0.47192383 0.88183594
vn -0.24658203 -0.34057617 0.90722656
vn -0.25610352 -0.54345703 0.7993164
vn -0.39746094 -0.19055176 0.89746094
vn -0.42163086 -0.5019531 0.7553711
vn -0.14941406 0.34960938 0.9248047
vn -0.29785156 0.026870728 0.95410156
vn -0.6855469 0.13366699 0.71533203
vn -0.40673828 0.39526367 0.82373047
vn -0.7861328 -0.085510254 0.6123047
vn -0.8261719 -0.19384766 0.5292969
vn -0.9633789 -0.008468628 0.2680664
vn -0.89746094 0.18347168 0.4013672
vn -0.7192383 0.43701172 0.54003906
vn -0 0.39257812 0.9199219
vn 0.109436035 0.40234375 0.9086914
vn 0.14941406 0.34960938 0.9248047
vn -0.109436035 0.40234375 0.9086914
vn -0 0.39257812 0.9199219
vn -3.5762787E-07 0.34057617 0.9404297
vn -0.29077148 0.42333984 0.85791016
vn -0.109436035 0.40234375 0.9086914
vn -0.14941406 0.34960938 0.9248047
vn -0.7192383 0.43701172 0.54003906
vn -0.29077148 0.42333984 0.85791016
vn -0.40673828 0.39526367 0.82373047
vn 0.21777344 -0.1517334 -0.96435547
vn 0.19042969 0.11401367 -0.97509766
vn 0.1862793 -0.0005993843 -0.9824219
vn 0.09729004 0.2355957 -0.9667969
vn 0.09313965 0.21850586 -0.9711914
vn 0.1862793 -0.0005993843 -0.9824219
vn 0.09729004 0.2355957 -0.9667969
vn 0.09313965 0.21850586 -0.9711914
vn 0.23657227 0.18017578 -0.95458984
vn -0.1862793 -0.0005888939 -0.9824219
vn -0.19042969 0.11401367 -0.97509766
vn -0.21777344 -0.1517334 -0.96435547
vn -0.09307861 0.21850586 -0.9711914
vn -0.097351074 0.2355957 -0.9667969
vn -0.097351074 0.2355957 -0.9667969
vn -0.1862793 -0.0005888939 -0.9824219
vn -0.2364502 0.18017578 -0.95458984
vn -0.09307861 0.21850586 -0.9711914
vn 0.83496094 -0.54345703 0.08508301
vn 0.8251953 -0.5595703 0.07678223
vn 0.8496094 -0.5185547 0.097961426
vn -0.8359375 -0.32763672 -0.4404297
vn 0.019317627 -0.09057617 -0.99560547
vn -0.2142334 -0.24865723 -0.9448242
vn 4.7683716E-07 -0.15917969 -0.9873047
vn -1.7881393E-07 0.06976318 -0.9975586
vn -0.42407227 0.035736084 -0.90478516
vn 0.42407227 0.035736084 -0.90478516
vn 4.7683716E-07 -0.15917969 -0.9873047
vn 0.83496094 -0.54345703 0.08508301
vn 0.79589844 -0.6035156 0.053009033
vn 0.8251953 -0.5595703 0.07678223
vn -0.8251953 -0.5595703 0.076660156
vn -0.79589844 -0.6035156 0.05291748
vn -0.83496094 -0.54345703 0.08496094
vn -0.8496094 -0.5185547 0.097839355
vn -0.8251953 -0.5595703 0.076660156
vn -0.83496094 -0.54345703 0.08496094
vn 0.2142334 -0.24865723 -0.9448242
vn -0.019317627 -0.09057617 -0.99560547
vn 0.8359375 -0.32763672 -0.4404297
vn 0.109436035 0.40234375 0.9086914
vn 0.29077148 0.42358398 0.85791016
vn 0.40649414 0.39526367 0.82373047
vn -0.9926758 -0.074645996 0.09362793
vn -0.9926758 -0.074645996 0.09362793
vn -0.99560547 -0.035339355 0.088378906
vn -0.99560547 -0.03302002 0.08807373
vn 0.99560547 -0.03302002 0.08807373
vn 0.99560547 -0.03527832 0.088378906
vn 0.9926758 -0.074645996 0.09362793
vn 0.9926758 -0.074645996 0.09362793
vn 0.53759766 -0.8046875 0.25146484
vn 0.53759766 -0.8046875 0.25146484
vn 0.53759766 -0.8046875 0.25146484
vn 0.53759766 -0.8046875 0.25146484
vn -0.53759766 -0.8046875 0.25146484
vn -0.53759766 -0.8046875 0.25146484
vn -0.53759766 -0.8046875 0.25146484
vn -0.53759766 -0.8046875 0.25146484
vn 0.7885742 0.6147461 0.018173218
vn 0.78466797 0.6196289 0.022491455
vn 0.97021484 0.23339844 0.06793213
vn 0.93652344 0.34545898 0.059417725
vn -0.93652344 0.34594727 0.059417725
vn -0.96972656 0.23364258 0.06793213
vn -0.78466797 0.6196289 0.022506714
vn -0.7885742 0.6147461 0.018173218
vn 0.93652344 0.34545898 0.059417725
vn 0.97021484 0.23339844 0.06793213
vn 0.99560547 -0.03527832 0.088378906
vn 0.99560547 -0.03302002 0.08807373
vn -0.99560547 -0.03302002 0.08807373
vn -0.99560547 -0.035339355 0.088378906
vn -0.96972656 0.23364258 0.06793213
vn -0.93652344 0.34594727 0.059417725
vn -0.7963867 -0.5727539 0.19445801
vn -0.7783203 -0.5942383 0.20178223
vn -0.83251953 -0.52441406 0.17810059
vn -0.83251953 -0.52441406 0.17810059
vn -0.7114258 -0.66552734 0.22595215
vn -0.6611328 -0.7104492 0.24121094
vn -0.7783203 -0.5942383 0.20178223
vn -0.7963867 -0.5727539 0.19445801
vn 0.7963867 -0.5727539 0.19445801
vn 0.7783203 -0.5942383 0.20178223
vn 0.6616211 -0.70996094 0.24108887
vn 0.7114258 -0.66552734 0.22595215
vn 0.83251953 -0.52441406 0.17810059
vn 0.83251953 -0.52441406 0.17810059
vn 0.7783203 -0.5942383 0.20178223
vn 0.7963867 -0.5727539 0.19445801
vn -0.5961914 -0.7602539 0.25805664
vn -0.5961914 -0.7602539 0.25805664
vn -0.6611328 -0.7104492 0.24121094
vn -0.7114258 -0.66552734 0.22595215
vn 0.7114258 -0.66552734 0.22595215
vn 0.6616211 -0.70996094 0.24108887
vn 0.5961914 -0.7602539 0.25805664
vn 0.5961914 -0.7602539 0.25805664
vn -0 1 0
vn -0 1 0
vn 0.26513672 0.96435547 -1.1920929E-07
vn 0.2512207 0.96777344 1.7881393E-07
vn -0.2512207 0.96777344 1.7881393E-07
vn -0.26513672 0.96435547 -5.9604645E-08
vn -0 1 0
vn -0 1 0
vn 0.2512207 0.96777344 1.7881393E-07
vn 0.26513672 0.96435547 -1.1920929E-07
vn 0.60791016 0.7939453 7.748604E-07
vn 0.56152344 0.8276367 1.9669533E-06
vn -0.56152344 0.8276367 -1.66893E-06
vn -0.60791016 0.7939453 2.503395E-06
vn -0.26513672 0.96435547 -5.9604645E-08
vn -0.2512207 0.96777344 1.7881393E-07
vn 0.56152344 0.8276367 1.9669533E-06
vn 0.60791016 0.7939453 7.748604E-07
vn 0.78466797 0.6196289 0.022491455
vn 0.7885742 0.6147461 0.018173218
vn -0.7885742 0.6147461 0.018173218
vn -0.78466797 0.6196289 0.022506714
vn -0.60791016 0.7939453 2.503395E-06
vn -0.56152344 0.8276367 -1.66893E-06
vn -0.36083984 0.015991211 -0.9326172
vn -0.22351074 0.03427124 -0.9741211
vn -0.019317627 -0.09057617 -0.99560547
vn 0.2142334 -0.24865723 -0.9448242
vn -0.42407227 0.035736084 -0.90478516
vn -1.7881393E-07 0.06976318 -0.9975586
vn -0.22351074 0.03427124 -0.9741211
vn -0.36083984 0.015991211 -0.9326172
vn 0.36083984 0.015991211 -0.9326172
vn 0.22351074 0.03427124 -0.9741211
vn -1.7881393E-07 0.06976318 -0.9975586
vn 0.42407227 0.035736084 -0.90478516
vn -0.2142334 -0.24865723 -0.9448242
vn 0.019317627 -0.09057617 -0.99560547
vn 0.22351074 0.03427124 -0.9741211
vn 0.36083984 0.015991211 -0.9326172
vn 2.3841858E-07 0.0062942505 -1
vn -0.18029785 0.117126465 -0.9765625
vn -0.1694336 0.1081543 -0.9794922
vn 2.3841858E-07 0.0062942505 -1
vn 0.22351074 0.03427124 -0.9741211
vn 0.019317627 -0.09057617 -0.99560547
vn 0.047027588 -0.0030117035 -0.99902344
vn 0.1694336 0.1081543 -0.9794922
vn 0.18029785 0.1171875 -0.9765625
vn 2.3841858E-07 0.0062942505 -1
vn 2.3841858E-07 0.0062942505 -1
vn -0.1694336 0.1081543 -0.9794922
vn -0.18029785 0.117126465 -0.9765625
vn -0.19042969 0.11401367 -0.97509766
vn -0.2364502 0.18017578 -0.95458984
vn 0.23657227 0.18017578 -0.95458984
vn 0.19042969 0.11401367 -0.97509766
vn 0.18029785 0.1171875 -0.9765625
vn 0.1694336 0.1081543 -0.9794922
vn -0 0.1665039 -0.98583984
vn -0.22351074 0.03427124 -0.9741211
vn -1.7881393E-07 0.06976318 -0.9975586
vn 0.22351074 0.03427124 -0.9741211
vn -0.22351074 0.03427124 -0.9741211
vn -5.9604645E-08 -0.0024051666 -1
vn -0.047027588 -0.0030117035 -0.99902344
vn -0.019317627 -0.09057617 -0.99560547
vn -5.9604645E-08 -0.0024051666 -1
vn -0.22351074 0.03427124 -0.9741211
vn -0 0.1665039 -0.98583984
vn 0.22351074 0.03427124 -0.9741211
g MeshBeard01_0
f 3/3/3 2/2/2 1/1/1
f 5/5/5 1/1/1 4/4/4
f 1/1/1 6/6/6 4/4/4
f 4/4/4 6/6/6 7/7/7
f 6/6/6 1/1/1 8/8/8
f 1/1/1 9/9/9 8/8/8
f 6/6/6 10/10/10 7/7/7
f 11/11/11 7/7/7 10/10/10
f 11/11/11 10/10/10 12/12/12
f 12/12/12 10/10/10 6/6/6
f 8/8/8 12/12/12 6/6/6
f 8/8/8 9/9/9 13/13/13
f 12/12/12 8/8/8 13/13/13
f 9/9/9 14/14/14 13/13/13
f 15/15/15 12/12/12 13/13/13
f 15/15/15 16/16/16 12/12/12
f 16/16/16 17/17/17 12/12/12
f 16/16/16 15/15/15 18/18/18
f 15/15/15 19/19/19 18/18/18
f 13/13/13 19/19/19 15/15/15
f 19/19/19 20/20/20 18/18/18
f 13/13/13 20/20/20 19/19/19
f 20/20/20 21/21/21 18/18/18
f 21/21/21 20/20/20 22/22/22
f 22/22/22 20/20/20 13/13/13
f 23/23/23 21/21/21 22/22/22
f 14/14/14 24/24/24 13/13/13
f 25/25/25 22/22/22 13/13/13
f 24/24/24 25/25/25 13/13/13
f 22/22/22 25/25/25 26/26/26
f 24/24/24 27/27/27 25/25/25
f 27/27/27 26/26/26 25/25/25
f 28/28/28 22/22/22 26/26/26
f 29/29/29 22/22/22 28/28/28
f 29/29/29 28/28/28 30/30/30
f 28/28/28 26/26/26 30/30/30
f 26/26/26 31/31/31 30/30/30
f 26/26/26 27/27/27 31/31/31
f 27/27/27 32/32/32 31/31/31
f 34/34/34 33/33/33 14/14/14
f 35/35/35 34/34/34 14/14/14
f 37/37/37 36/36/36 24/24/24
f 38/38/38 37/37/37 24/24/24
f 40/40/40 39/39/39 27/27/27
f 41/41/41 40/40/40 27/27/27
f 44/44/44 43/43/43 42/42/42
f 47/47/47 46/46/46 45/45/45
f 49/49/49 46/46/46 48/48/48
f 51/51/51 46/46/46 50/50/50
f 53/53/53 46/46/46 52/52/52
f 56/56/56 55/55/55 54/54/54
f 58/58/58 55/55/55 57/57/57
f 60/60/60 55/55/55 59/59/59
f 62/62/62 55/55/55 61/61/61
f 65/65/65 64/64/64 63/63/63
f 68/68/68 67/67/67 66/66/66
f 71/71/71 70/70/70 69/69/69
f 73/73/73 70/70/70 72/72/72
f 76/76/76 75/75/75 74/74/74
f 79/79/79 78/78/78 77/77/77
f 82/82/82 81/81/81 80/80/80
f 85/85/85 84/84/84 83/83/83
f 87/87/87 86/86/86 9/9/9
f 88/88/88 87/87/87 9/9/9
f 91/91/91 90/90/90 89/89/89
f 92/92/92 91/91/91 89/89/89
f 95/95/95 94/94/94 93/93/93
f 96/96/96 95/95/95 93/93/93
f 99/99/99 98/98/98 97/97/97
f 100/100/100 99/99/99 97/97/97
f 103/103/103 102/102/102 101/101/101
f 104/104/104 103/103/103 101/101/101
f 107/107/107 106/106/106 105/105/105
f 108/108/108 107/107/107 105/105/105
f 111/111/111 110/110/110 109/109/109
f 112/112/112 111/111/111 109/109/109
f 115/115/115 114/114/114 113/113/113
f 116/116/116 115/115/115 113/113/113
f 119/119/119 118/118/118 117/117/117
f 120/120/120 119/119/119 117/117/117
f 123/123/123 122/122/122 121/121/121
f 124/124/124 123/123/123 121/121/121
f 127/127/127 126/126/126 125/125/125
f 128/128/128 127/127/127 125/125/125
f 131/131/131 130/130/130 129/129/129
f 132/132/132 131/131/131 129/129/129
f 135/135/135 134/134/134 133/133/133
f 136/136/136 135/135/135 133/133/133
f 139/139/139 138/138/138 137/137/137
f 140/140/140 139/139/139 137/137/137
f 143/143/143 142/142/142 141/141/141
f 144/144/144 143/143/143 141/141/141
f 147/147/147 146/146/146 145/145/145
f 148/148/148 147/147/147 145/145/145
f 151/151/151 150/150/150 149/149/149
f 152/152/152 151/151/151 149/149/149
f 155/155/155 154/154/154 153/153/153
f 156/156/156 155/155/155 153/153/153
f 159/159/159 158/158/158 157/157/157
f 160/160/160 159/159/159 157/157/157
f 163/163/163 162/162/162 161/161/161
f 164/164/164 163/163/163 161/161/161
f 167/167/167 166/166/166 165/165/165
f 168/168/168 167/167/167 165/165/165
f 171/171/171 170/170/170 169/169/169
f 172/172/172 171/171/171 169/169/169
f 175/175/175 174/174/174 173/173/173
f 176/176/176 175/175/175 173/173/173
f 179/179/179 178/178/178 177/177/177
f 180/180/180 179/179/179 177/177/177
f 183/183/183 182/182/182 181/181/181
f 184/184/184 183/183/183 181/181/181
f 187/187/187 186/186/186 185/185/185
f 186/186/186 188/188/188 185/185/185
f 190/190/190 189/189/189 188/188/188
f 191/191/191 190/190/190 188/188/188
f 194/194/194 193/193/193 192/192/192
f 195/195/195 194/194/194 192/192/192
f 198/198/198 197/197/197 196/196/196
f 199/199/199 198/198/198 196/196/196
f 202/202/202 201/201/201 200/200/200
f 203/203/203 202/202/202 200/200/200
f 206/206/206 205/205/205 204/204/204
f 206/206/206 204/204/204 207/207/207
f 210/210/210 209/209/209 208/208/208
f 211/211/211 210/210/210 208/208/208
f 214/214/214 213/213/213 212/212/212
f 215/215/215 214/214/214 212/212/212
